<svg width="72" height="31" viewBox="0 0 72 31" fill="none" xmlns="http://www.w3.org/2000/svg">
<rect width="72" height="31" rx="15.5" fill="#137301" fill-opacity="0.2"/>
<rect x="0.5" y="0.5" width="71" height="30" rx="15" stroke="#137301" stroke-opacity="0.5"/>
<path d="M18.0068 20L21.3056 11.4102H22.5302L26.0459 20H24.7509L23.749 17.3984H20.1572L19.2138 20H18.0068ZM20.4853 16.4727H23.3974L22.5009 14.0938C22.2275 13.3711 22.0244 12.7773 21.8916 12.3125C21.7822 12.8633 21.6279 13.4102 21.4287 13.9531L20.4853 16.4727ZM31.3364 20V19.2148C30.9419 19.832 30.3618 20.1406 29.5962 20.1406C29.1001 20.1406 28.643 20.0039 28.2251 19.7305C27.811 19.457 27.4888 19.0762 27.2583 18.5879C27.0317 18.0957 26.9184 17.5312 26.9184 16.8945C26.9184 16.2734 27.022 15.7109 27.229 15.207C27.436 14.6992 27.7466 14.3105 28.1606 14.041C28.5747 13.7715 29.0376 13.6367 29.5493 13.6367C29.9243 13.6367 30.2583 13.7168 30.5513 13.877C30.8442 14.0332 31.0825 14.2383 31.2661 14.4922V11.4102H32.3149V20H31.3364ZM28.0024 16.8945C28.0024 17.6914 28.1704 18.2871 28.5063 18.6816C28.8423 19.0762 29.2388 19.2734 29.6958 19.2734C30.1567 19.2734 30.5473 19.0859 30.8677 18.7109C31.1919 18.332 31.354 17.7559 31.354 16.9824C31.354 16.1309 31.1899 15.5059 30.8618 15.1074C30.5337 14.709 30.1294 14.5098 29.6489 14.5098C29.1802 14.5098 28.7876 14.7012 28.4712 15.084C28.1587 15.4668 28.0024 16.0703 28.0024 16.8945ZM34.459 20V13.7773H35.4023V14.6504C35.5977 14.3457 35.8574 14.1016 36.1816 13.918C36.5059 13.7305 36.875 13.6367 37.2891 13.6367C37.75 13.6367 38.127 13.7324 38.4199 13.9238C38.7168 14.1152 38.9258 14.3828 39.0469 14.7266C39.5391 14 40.1797 13.6367 40.9688 13.6367C41.5859 13.6367 42.0605 13.8086 42.3926 14.1523C42.7246 14.4922 42.8906 15.0176 42.8906 15.7285V20H41.8418V16.0801C41.8418 15.6582 41.8066 15.3555 41.7363 15.1719C41.6699 14.9844 41.5469 14.834 41.3672 14.7207C41.1875 14.6074 40.9766 14.5508 40.7344 14.5508C40.2969 14.5508 39.9336 14.6973 39.6445 14.9902C39.3555 15.2793 39.2109 15.7441 39.2109 16.3848V20H38.1562V15.957C38.1562 15.4883 38.0703 15.1367 37.8984 14.9023C37.7266 14.668 37.4453 14.5508 37.0547 14.5508C36.7578 14.5508 36.4824 14.6289 36.2285 14.7852C35.9785 14.9414 35.7969 15.1699 35.6836 15.4707C35.5703 15.7715 35.5137 16.2051 35.5137 16.7715V20H34.459ZM44.9409 12.623V11.4102H45.9956V12.623H44.9409ZM44.9409 20V13.7773H45.9956V20H44.9409ZM48.087 20V13.7773H49.0362V14.6621C49.4932 13.9785 50.1534 13.6367 51.0166 13.6367C51.3916 13.6367 51.7354 13.7051 52.0479 13.8418C52.3643 13.9746 52.6006 14.1504 52.7569 14.3691C52.9131 14.5879 53.0225 14.8477 53.085 15.1484C53.1241 15.3438 53.1436 15.6855 53.1436 16.1738V20H52.0889V16.2148C52.0889 15.7852 52.0479 15.4648 51.9659 15.2539C51.8838 15.0391 51.7373 14.8691 51.5264 14.7441C51.3194 14.6152 51.0752 14.5508 50.794 14.5508C50.3448 14.5508 49.9561 14.6934 49.628 14.9785C49.3037 15.2637 49.1416 15.8047 49.1416 16.6016V20H48.087Z" fill="#137301"/>
</svg>
