<svg width="150" height="150" viewBox="0 0 150 150" fill="none" xmlns="http://www.w3.org/2000/svg">
<circle cx="75" cy="75" r="75" fill="#137301" fill-opacity="0.2"/>
<mask id="mask0_243_2" style="mask-type:alpha" maskUnits="userSpaceOnUse" x="45" y="45" width="60" height="60">
<rect x="45" y="45" width="60" height="60" fill="#D9D9D9"/>
</mask>
<g mask="url(#mask0_243_2)">
<path d="M75 87.7881C77.8687 87.7881 80.3006 86.7906 82.2956 84.7956C84.2906 82.8006 85.2881 80.3687 85.2881 77.5C85.2881 74.6313 84.2906 72.1994 82.2956 70.2044C80.3006 68.2094 77.8687 67.2119 75 67.2119C72.1313 67.2119 69.6994 68.2094 67.7044 70.2044C65.7094 72.1994 64.7119 74.6313 64.7119 77.5C64.7119 80.3687 65.7094 82.8006 67.7044 84.7956C69.6994 86.7906 72.1313 87.7881 75 87.7881ZM75 84.0388C73.1537 84.0388 71.6025 83.4104 70.3463 82.1537C69.0896 80.8975 68.4613 79.3463 68.4613 77.5C68.4613 75.6537 69.0896 74.1025 70.3463 72.8462C71.6025 71.5896 73.1537 70.9613 75 70.9613C76.8463 70.9613 78.3975 71.5896 79.6538 72.8462C80.9104 74.1025 81.5388 75.6537 81.5388 77.5C81.5388 79.3463 80.9104 80.8975 79.6538 82.1537C78.3975 83.4104 76.8463 84.0388 75 84.0388ZM55.7694 96.25C54.5065 96.25 53.4375 95.8125 52.5625 94.9375C51.6875 94.0625 51.25 92.9935 51.25 91.7306V63.2694C51.25 62.0065 51.6875 60.9375 52.5625 60.0625C53.4375 59.1875 54.5065 58.75 55.7694 58.75H63.4037L68.0287 53.75H81.9712L86.5962 58.75H94.2306C95.4935 58.75 96.5625 59.1875 97.4375 60.0625C98.3125 60.9375 98.75 62.0065 98.75 63.2694V91.7306C98.75 92.9935 98.3125 94.0625 97.4375 94.9375C96.5625 95.8125 95.4935 96.25 94.2306 96.25H55.7694Z" fill="#137301" fill-opacity="0.5"/>
</g>
</svg>
