<svg width="20" height="16" viewBox="0 0 20 16" fill="none" xmlns="http://www.w3.org/2000/svg">
<path d="M4.60335 9.83887H11.1783C11.4283 9.83887 11.6158 9.76095 11.7408 9.60512C11.8658 9.44912 11.9283 9.27762 11.9283 9.09062C11.9283 8.90362 11.8658 8.73153 11.7408 8.57437C11.6158 8.41737 11.4283 8.33887 11.1783 8.33887H4.60335C4.39085 8.33887 4.21276 8.41078 4.0691 8.55462C3.92526 8.69845 3.85335 8.87662 3.85335 9.08912C3.85335 9.30178 3.92526 9.47987 4.0691 9.62337C4.21276 9.76703 4.39085 9.83887 4.60335 9.83887ZM4.60335 5.83887H8.60335C8.81585 5.83887 8.99393 5.76695 9.1376 5.62312C9.28143 5.47928 9.35335 5.30112 9.35335 5.08862C9.35335 4.87595 9.28143 4.69787 9.1376 4.55437C8.99393 4.4107 8.81585 4.33887 8.60335 4.33887H4.60335C4.39085 4.33887 4.21276 4.41078 4.0691 4.55462C3.92526 4.69845 3.85335 4.87662 3.85335 5.08912C3.85335 5.30178 3.92526 5.47987 4.0691 5.62337C4.21276 5.76703 4.39085 5.83887 4.60335 5.83887ZM1.9111 13.5889C1.41393 13.5889 0.988348 13.4119 0.634348 13.0579C0.280348 12.7039 0.103348 12.2783 0.103348 11.7811V2.39662C0.103348 1.89945 0.280348 1.47387 0.634348 1.11987C0.988348 0.765867 1.41393 0.588867 1.9111 0.588867H17.2956C17.7928 0.588867 18.2183 0.765867 18.5723 1.11987C18.9263 1.47387 19.1033 1.89945 19.1033 2.39662V4.03112C19.1033 4.24362 19.0314 4.42178 18.8876 4.56562C18.7438 4.70928 18.5656 4.78112 18.3531 4.78112C18.1404 4.78112 17.9623 4.70928 17.8188 4.56562C17.6752 4.42178 17.6033 4.24362 17.6033 4.03112V2.39662C17.6033 2.30678 17.5745 2.23303 17.5168 2.17537C17.4592 2.1177 17.3854 2.08887 17.2956 2.08887H1.9111C1.82126 2.08887 1.74751 2.1177 1.68985 2.17537C1.63218 2.23303 1.60335 2.30678 1.60335 2.39662V11.7811C1.60335 11.871 1.63218 11.9447 1.68985 12.0024C1.74751 12.06 1.82126 12.0889 1.9111 12.0889H8.4976C8.7101 12.0889 8.88826 12.1608 9.0321 12.3046C9.17576 12.4485 9.2476 12.6266 9.2476 12.8391C9.2476 13.0518 9.17576 13.2299 9.0321 13.3734C8.88826 13.517 8.7101 13.5889 8.4976 13.5889H1.9111ZM19.8301 7.21587C19.9071 7.29353 19.9456 7.37895 19.9456 7.47212C19.9456 7.56528 19.9067 7.65078 19.8288 7.72862L18.9878 8.56962L17.7186 7.30037L18.5598 6.45962C18.6378 6.38162 18.7236 6.34262 18.8171 6.34262C18.9104 6.34262 18.9956 6.38112 19.0726 6.45812L19.8301 7.21587ZM18.4071 9.16962L12.2493 15.3274C12.1747 15.4017 12.0906 15.4574 11.9971 15.4946C11.9036 15.5318 11.8069 15.5504 11.7071 15.5504H11.1418C11.0392 15.5504 10.9494 15.5119 10.8726 15.4349C10.7956 15.358 10.7571 15.2684 10.7571 15.1659V14.6004C10.7571 14.5007 10.7758 14.4041 10.8131 14.3106C10.8503 14.2171 10.906 14.133 10.9803 14.0581L17.1378 7.90037L18.4071 9.16962Z" fill="#8B8B8B"/>
</svg>
