<svg width="24" height="25" viewBox="0 0 24 25" fill="none" xmlns="http://www.w3.org/2000/svg">
<mask id="mask0_43_176" style="mask-type:alpha" maskUnits="userSpaceOnUse" x="0" y="0" width="24" height="25">
<rect y="0.640625" width="24" height="24" fill="#D9D9D9"/>
</mask>
<g mask="url(#mask0_43_176)">
<path d="M7.30775 21.1406C6.81058 21.1406 6.385 20.9636 6.031 20.6096C5.677 20.2556 5.5 19.83 5.5 19.3329V6.6406H5.25C5.0375 6.6406 4.85942 6.56869 4.71575 6.42485C4.57192 6.28102 4.5 6.10285 4.5 5.89035C4.5 5.67769 4.57192 5.4996 4.71575 5.3561C4.85942 5.21244 5.0375 5.1406 5.25 5.1406H9C9 4.89577 9.08625 4.6871 9.25875 4.5146C9.43108 4.34227 9.63967 4.2561 9.8845 4.2561H14.1155C14.3603 4.2561 14.5689 4.34227 14.7413 4.5146C14.9138 4.6871 15 4.89577 15 5.1406H18.75C18.9625 5.1406 19.1406 5.21252 19.2843 5.35635C19.4281 5.50019 19.5 5.67835 19.5 5.89085C19.5 6.10352 19.4281 6.2816 19.2843 6.4251C19.1406 6.56877 18.9625 6.6406 18.75 6.6406H18.5V19.3329C18.5 19.83 18.323 20.2556 17.969 20.6096C17.615 20.9636 17.1894 21.1406 16.6923 21.1406H7.30775ZM17 6.6406H7V19.3329C7 19.4227 7.02883 19.4964 7.0865 19.5541C7.14417 19.6118 7.21792 19.6406 7.30775 19.6406H16.6923C16.7821 19.6406 16.8558 19.6118 16.9135 19.5541C16.9712 19.4964 17 19.4227 17 19.3329V6.6406ZM10.1543 17.6406C10.3668 17.6406 10.5448 17.5688 10.6885 17.4251C10.832 17.2813 10.9037 17.1031 10.9037 16.8906V9.3906C10.9037 9.1781 10.8318 8.99994 10.688 8.8561C10.5443 8.71244 10.3662 8.6406 10.1535 8.6406C9.941 8.6406 9.76292 8.71244 9.61925 8.8561C9.47575 8.99994 9.404 9.1781 9.404 9.3906V16.8906C9.404 17.1031 9.47583 17.2813 9.6195 17.4251C9.76333 17.5688 9.94158 17.6406 10.1543 17.6406ZM13.8465 17.6406C14.059 17.6406 14.2371 17.5688 14.3807 17.4251C14.5243 17.2813 14.596 17.1031 14.596 16.8906V9.3906C14.596 9.1781 14.5242 8.99994 14.3805 8.8561C14.2367 8.71244 14.0584 8.6406 13.8458 8.6406C13.6333 8.6406 13.4552 8.71244 13.3115 8.8561C13.168 8.99994 13.0962 9.1781 13.0962 9.3906V16.8906C13.0962 17.1031 13.1682 17.2813 13.312 17.4251C13.4557 17.5688 13.6338 17.6406 13.8465 17.6406Z" fill="#8B8B8B"/>
</g>
</svg>
