<svg width="72" height="31" viewBox="0 0 72 31" fill="none" xmlns="http://www.w3.org/2000/svg">
<rect width="72" height="31" rx="15.5" fill="#FEC039" fill-opacity="0.1"/>
<rect x="0.75" y="0.75" width="70.5" height="29.5" rx="14.75" stroke="#FEC039" stroke-opacity="0.5" stroke-width="1.5"/>
<path d="M15.9844 20V11.4102H21.7793V12.4238H17.1211V15.084H21.1523V16.0977H17.1211V20H15.9844ZM27.6675 19.2324C27.2769 19.5645 26.8999 19.7988 26.5366 19.9355C26.1773 20.0723 25.7905 20.1406 25.3765 20.1406C24.6929 20.1406 24.1675 19.9746 23.8003 19.6426C23.4331 19.3066 23.2495 18.8789 23.2495 18.3594C23.2495 18.0547 23.3179 17.7773 23.4546 17.5273C23.5952 17.2734 23.7769 17.0703 23.9995 16.918C24.2261 16.7656 24.48 16.6504 24.7613 16.5723C24.9683 16.5176 25.2808 16.4648 25.6988 16.4141C26.5503 16.3125 27.1773 16.1914 27.5796 16.0508C27.5835 15.9062 27.5855 15.8145 27.5855 15.7754C27.5855 15.3457 27.4859 15.043 27.2866 14.8672C27.0171 14.6289 26.6167 14.5098 26.0855 14.5098C25.5894 14.5098 25.2222 14.5977 24.9839 14.7734C24.7495 14.9453 24.5757 15.252 24.4624 15.6934L23.4312 15.5527C23.5249 15.1113 23.6792 14.7559 23.8941 14.4863C24.1089 14.2129 24.4195 14.0039 24.8257 13.8594C25.232 13.7109 25.7027 13.6367 26.2378 13.6367C26.7691 13.6367 27.2007 13.6992 27.5327 13.8242C27.8648 13.9492 28.1089 14.1074 28.2652 14.2988C28.4214 14.4863 28.5308 14.7246 28.5933 15.0137C28.6284 15.1934 28.646 15.5176 28.646 15.9863V17.3926C28.646 18.373 28.6675 18.9941 28.7105 19.2559C28.7573 19.5137 28.8472 19.7617 28.98 20H27.8784C27.7691 19.7812 27.6988 19.5254 27.6675 19.2324ZM27.5796 16.877C27.1968 17.0332 26.6226 17.166 25.857 17.2754C25.4234 17.3379 25.1167 17.4082 24.937 17.4863C24.7573 17.5645 24.6187 17.6797 24.521 17.832C24.4234 17.9805 24.3745 18.1465 24.3745 18.3301C24.3745 18.6113 24.48 18.8457 24.6909 19.0332C24.9058 19.2207 25.2183 19.3145 25.6284 19.3145C26.0347 19.3145 26.396 19.2266 26.7124 19.0508C27.0288 18.8711 27.2613 18.627 27.4097 18.3184C27.523 18.0801 27.5796 17.7285 27.5796 17.2637V16.877ZM34.8272 17.7207L35.8643 17.8555C35.751 18.5703 35.46 19.1309 34.9913 19.5371C34.5264 19.9395 33.9541 20.1406 33.2745 20.1406C32.4229 20.1406 31.7373 19.8633 31.2178 19.3086C30.7022 18.75 30.4444 17.9512 30.4444 16.9121C30.4444 16.2402 30.5557 15.6523 30.7784 15.1484C31.001 14.6445 31.3389 14.2676 31.792 14.0176C32.2491 13.7637 32.7452 13.6367 33.2803 13.6367C33.9561 13.6367 34.5088 13.8086 34.9385 14.1523C35.3682 14.4922 35.6436 14.9766 35.7647 15.6055L34.7393 15.7637C34.6416 15.3457 34.4678 15.0312 34.2178 14.8203C33.9717 14.6094 33.6729 14.5039 33.3213 14.5039C32.7901 14.5039 32.3584 14.6953 32.0264 15.0781C31.6944 15.457 31.5284 16.0586 31.5284 16.8828C31.5284 17.7188 31.6885 18.3262 32.0088 18.7051C32.3291 19.084 32.7471 19.2734 33.2627 19.2734C33.6768 19.2734 34.0225 19.1465 34.2998 18.8926C34.5772 18.6387 34.753 18.248 34.8272 17.7207ZM41.3248 20V19.0859C40.8404 19.7891 40.1822 20.1406 39.3502 20.1406C38.983 20.1406 38.6392 20.0703 38.3189 19.9297C38.0025 19.7891 37.7662 19.6133 37.6099 19.4023C37.4576 19.1875 37.3502 18.9258 37.2877 18.6172C37.2447 18.4102 37.2232 18.082 37.2232 17.6328V13.7773H38.2779V17.2285C38.2779 17.7793 38.2994 18.1504 38.3423 18.3418C38.4088 18.6191 38.5494 18.8379 38.7642 18.998C38.9791 19.1543 39.2447 19.2324 39.5611 19.2324C39.8775 19.2324 40.1744 19.1523 40.4517 18.9922C40.7291 18.8281 40.9244 18.6074 41.0377 18.3301C41.1548 18.0488 41.2134 17.6426 41.2134 17.1113V13.7773H42.2681V20H41.3248ZM44.3829 20V11.4102H45.4376V20H44.3829ZM49.8609 19.0566L50.0133 19.9883C49.7164 20.0508 49.4508 20.082 49.2164 20.082C48.8336 20.082 48.5367 20.0215 48.3258 19.9004C48.1148 19.7793 47.9664 19.6211 47.8805 19.4258C47.7945 19.2266 47.7516 18.8105 47.7516 18.1777V14.5977H46.9781V13.7773H47.7516V12.2363L48.8004 11.6035V13.7773H49.8609V14.5977H48.8004V18.2363C48.8004 18.5371 48.818 18.7305 48.8531 18.8164C48.8922 18.9023 48.9527 18.9707 49.0348 19.0215C49.1207 19.0723 49.2418 19.0977 49.398 19.0977C49.5152 19.0977 49.6695 19.084 49.8609 19.0566ZM51.3312 22.3965L51.214 21.4062C51.4445 21.4688 51.6456 21.5 51.8175 21.5C52.0519 21.5 52.2394 21.4609 52.38 21.3828C52.5206 21.3047 52.6359 21.1953 52.7257 21.0547C52.7921 20.9492 52.8995 20.6875 53.048 20.2695C53.0675 20.2109 53.0988 20.125 53.1417 20.0117L50.7804 13.7773H51.9171L53.212 17.3809C53.38 17.8379 53.5304 18.3184 53.6632 18.8223C53.7843 18.3379 53.9288 17.8652 54.0968 17.4043L55.4269 13.7773H56.4816L54.1144 20.1055C53.8605 20.7891 53.6632 21.2598 53.5226 21.5176C53.3351 21.8652 53.1202 22.1191 52.878 22.2793C52.6359 22.4434 52.3468 22.5254 52.0109 22.5254C51.8077 22.5254 51.5812 22.4824 51.3312 22.3965Z" fill="#FEC039"/>
</svg>
