<svg width="24" height="24" viewBox="0 0 24 24" fill="none" xmlns="http://www.w3.org/2000/svg">
<path d="M11 18C10.7167 18 10.4793 17.904 10.288 17.712C10.0967 17.52 10.0007 17.2827 10 17C9.99934 16.7173 10.0953 16.48 10.288 16.288C10.4807 16.096 10.718 16 11 16H13C13.2833 16 13.521 16.096 13.713 16.288C13.905 16.48 14.0007 16.7173 14 17C13.9993 17.2827 13.9033 17.5203 13.712 17.713C13.5207 17.9057 13.2833 18.0013 13 18H11ZM7 13C6.71667 13 6.47934 12.904 6.288 12.712C6.09667 12.52 6.00067 12.2827 6 12C5.99934 11.7173 6.09534 11.48 6.288 11.288C6.48067 11.096 6.718 11 7 11H17C17.2833 11 17.521 11.096 17.713 11.288C17.905 11.48 18.0007 11.7173 18 12C17.9993 12.2827 17.9033 12.5203 17.712 12.713C17.5207 12.9057 17.2833 13.0013 17 13H7ZM4 8C3.71667 8 3.47934 7.904 3.288 7.712C3.09667 7.52 3.00067 7.28267 3 7C2.99934 6.71733 3.09534 6.48 3.288 6.288C3.48067 6.096 3.718 6 4 6H20C20.2833 6 20.521 6.096 20.713 6.288C20.905 6.48 21.0007 6.71733 21 7C20.9993 7.28267 20.9033 7.52033 20.712 7.713C20.5207 7.90567 20.2833 8.00133 20 8H4Z" fill="#8B8B8B"/>
</svg>
