<svg width="24" height="25" viewBox="0 0 24 25" fill="none" xmlns="http://www.w3.org/2000/svg">
<path d="M11.83 9.66675L15 12.8267V12.6667C15 11.8711 14.6839 11.108 14.1213 10.5454C13.5587 9.98282 12.7956 9.66675 12 9.66675H11.83ZM7.53 10.4667L9.08 12.0167C9.03 12.2267 9 12.4367 9 12.6667C9 13.4624 9.31607 14.2255 9.87868 14.7881C10.4413 15.3507 11.2044 15.6667 12 15.6667C12.22 15.6667 12.44 15.6367 12.65 15.5867L14.2 17.1367C13.53 17.4667 12.79 17.6667 12 17.6667C10.6739 17.6667 9.40215 17.14 8.46447 16.2023C7.52678 15.2646 7 13.9928 7 12.6667C7 11.8767 7.2 11.1367 7.53 10.4667ZM2 4.93675L4.28 7.21675L4.73 7.66675C3.08 8.96675 1.78 10.6667 1 12.6667C2.73 17.0567 7 20.1667 12 20.1667C13.55 20.1667 15.03 19.8667 16.38 19.3267L16.81 19.7467L19.73 22.6667L21 21.3967L3.27 3.66675M12 7.66675C13.3261 7.66675 14.5979 8.19353 15.5355 9.13121C16.4732 10.0689 17 11.3407 17 12.6667C17 13.3067 16.87 13.9267 16.64 14.4867L19.57 17.4167C21.07 16.1667 22.27 14.5267 23 12.6667C21.27 8.27675 17 5.16675 12 5.16675C10.6 5.16675 9.26 5.41675 8 5.86675L10.17 8.01675C10.74 7.79675 11.35 7.66675 12 7.66675Z" fill="#8B8B8B"/>
</svg>
