<svg width="16" height="20" viewBox="0 0 16 20" fill="none" xmlns="http://www.w3.org/2000/svg">
<path d="M8 19.325C7.76667 19.325 7.53333 19.2833 7.3 19.2C7.06667 19.1167 6.85833 18.9917 6.675 18.825C5.59167 17.825 4.63333 16.85 3.8 15.9C2.96667 14.95 2.271 14.0293 1.713 13.138C1.155 12.2467 0.73 11.3883 0.438 10.563C0.146 9.73767 0 8.95 0 8.2C0 5.7 0.804333 3.70833 2.413 2.225C4.02167 0.741667 5.884 0 8 0C10.116 0 11.9787 0.741667 13.588 2.225C15.1973 3.70833 16.0013 5.7 16 8.2C16 8.95 15.8543 9.73767 15.563 10.563C15.2717 11.3883 14.8467 12.2467 14.288 13.138C13.7293 14.0293 13.0333 14.95 12.2 15.9C11.3667 16.85 10.4083 17.825 9.325 18.825C9.14167 18.9917 8.93333 19.1167 8.7 19.2C8.46667 19.2833 8.23333 19.325 8 19.325ZM8 10C8.55 10 9.021 9.80433 9.413 9.413C9.805 9.02167 10.0007 8.55067 10 8C9.99933 7.44933 9.80367 6.97867 9.413 6.588C9.02233 6.19733 8.55133 6.00133 8 6C7.44867 5.99867 6.978 6.19467 6.588 6.588C6.198 6.98133 6.002 7.452 6 8C5.998 8.548 6.194 9.019 6.588 9.413C6.982 9.807 7.45267 10.0027 8 10Z" fill="#8B8B8B"/>
</svg>
