<svg width="19" height="20" viewBox="0 0 19 20" fill="none" xmlns="http://www.w3.org/2000/svg">
<path d="M8.46011 19.9148C8.11911 19.9148 7.82462 19.8016 7.57662 19.5753C7.32845 19.3491 7.17745 19.0706 7.12362 18.7398L6.87937 16.8685C6.61153 16.7789 6.33687 16.6533 6.05537 16.4918C5.77403 16.3301 5.52245 16.157 5.30062 15.9725L3.56787 16.709C3.2537 16.8475 2.93803 16.861 2.62087 16.7493C2.30353 16.6378 2.05703 16.4353 1.88137 16.1418L0.754365 14.1878C0.578699 13.8943 0.528115 13.5837 0.602615 13.256C0.676949 12.9285 0.847449 12.6584 1.11412 12.4455L2.61212 11.3205C2.58912 11.1719 2.57278 11.0225 2.56312 10.8725C2.55345 10.7225 2.54862 10.5731 2.54862 10.4243C2.54862 10.2821 2.55345 10.1376 2.56312 9.9908C2.57278 9.84396 2.58912 9.68338 2.61212 9.50905L1.11412 8.38405C0.847449 8.17121 0.678532 7.89938 0.607365 7.56855C0.536199 7.23788 0.588449 6.92571 0.764115 6.63205L1.88137 4.70705C2.05703 4.41988 2.30353 4.21896 2.62087 4.1043C2.93803 3.98946 3.2537 4.0013 3.56787 4.1398L5.29087 4.8668C5.53203 4.6758 5.78945 4.50113 6.06312 4.34279C6.33678 4.18446 6.6057 4.05721 6.86986 3.96104L7.12362 2.08979C7.17745 1.75896 7.32845 1.48046 7.57662 1.2543C7.82462 1.02796 8.11911 0.914795 8.46011 0.914795H10.6756C11.0166 0.914795 11.3111 1.02796 11.5591 1.2543C11.8073 1.48046 11.9583 1.75896 12.0121 2.08979L12.2564 3.97054C12.5564 4.07954 12.8278 4.20679 13.0706 4.35229C13.3136 4.49779 13.5589 4.6693 13.8064 4.8668L15.5776 4.1398C15.8916 4.0013 16.2073 3.98946 16.5246 4.1043C16.8419 4.21896 17.0884 4.41988 17.2639 4.70705L18.3814 6.6418C18.557 6.9353 18.6076 7.24588 18.5331 7.57354C18.4588 7.90104 18.2883 8.17121 18.0216 8.38405L16.4851 9.5378C16.5209 9.6993 16.5405 9.8503 16.5439 9.9908C16.547 10.1311 16.5486 10.2725 16.5486 10.4148C16.5486 10.5506 16.5454 10.6888 16.5389 10.8293C16.5325 10.9696 16.5095 11.1302 16.4699 11.311L17.9774 12.4455C18.244 12.6584 18.4162 12.9285 18.4939 13.256C18.5714 13.5837 18.5223 13.8943 18.3466 14.1878L17.2139 16.132C17.0384 16.4257 16.7904 16.6283 16.4699 16.7398C16.1494 16.8513 15.832 16.8378 15.5179 16.6993L13.8064 15.9628C13.5589 16.1603 13.3063 16.335 13.0486 16.4868C12.7909 16.6388 12.5269 16.7629 12.2564 16.859L12.0121 18.7398C11.9583 19.0706 11.8073 19.3491 11.5591 19.5753C11.3111 19.8016 11.0166 19.9148 10.6756 19.9148H8.46011ZM8.56786 18.4148H10.5334L10.8929 15.736C11.4032 15.6027 11.8695 15.4133 12.2919 15.1678C12.7144 14.9221 13.1218 14.6064 13.5141 14.2205L15.9986 15.2648L16.9834 13.5648L14.8141 11.9303C14.8974 11.6713 14.9541 11.4174 14.9841 11.1685C15.0143 10.9199 15.0294 10.6686 15.0294 10.4148C15.0294 10.1545 15.0143 9.90321 14.9841 9.66105C14.9541 9.41871 14.8974 9.17121 14.8141 8.91855L17.0024 7.26479L16.0179 5.5648L13.5044 6.6243C13.1697 6.26663 12.7688 5.95063 12.3016 5.6763C11.8343 5.40196 11.3615 5.20771 10.8834 5.09355L10.5679 2.41479H8.58337L8.25237 5.08405C7.7422 5.20455 7.27112 5.38913 6.83912 5.63779C6.40695 5.88663 5.9947 6.20713 5.60237 6.5993L3.11787 5.5648L2.13337 7.26479L4.29287 8.8743C4.20953 9.11163 4.1512 9.35846 4.11787 9.61479C4.08453 9.87113 4.06787 10.141 4.06787 10.4243C4.06787 10.6846 4.08453 10.9398 4.11787 11.1898C4.1512 11.4398 4.20637 11.6866 4.28337 11.9303L2.13337 13.5648L3.11787 15.2648L5.59287 14.2148C5.97237 14.6045 6.37812 14.9237 6.81012 15.1725C7.24228 15.4212 7.71986 15.6122 8.24287 15.7455L8.56786 18.4148ZM9.57936 13.4148C10.4114 13.4148 11.1194 13.1228 11.7034 12.5388C12.2874 11.9548 12.5794 11.2468 12.5794 10.4148C12.5794 9.5828 12.2874 8.87479 11.7034 8.29079C11.1194 7.70679 10.4114 7.41479 9.57936 7.41479C8.73703 7.41479 8.02645 7.70679 7.44762 8.29079C6.86878 8.87479 6.57937 9.5828 6.57937 10.4148C6.57937 11.2468 6.86878 11.9548 7.44762 12.5388C8.02645 13.1228 8.73703 13.4148 9.57936 13.4148Z" fill="#8B8B8B"/>
</svg>
