<svg width="400" height="324" viewBox="0 0 400 324" fill="none" xmlns="http://www.w3.org/2000/svg">
<rect width="400" height="300" rx="20" fill="#D9D9D9"/>
<mask id="mask0_286_243" style="mask-type:alpha" maskUnits="userSpaceOnUse" x="150" y="100" width="100" height="100">
<rect x="150" y="100" width="100" height="100" fill="#D9D9D9"/>
</mask>
<g mask="url(#mask0_286_243)">
<path d="M200 171.313C204.781 171.313 208.834 169.651 212.159 166.326C215.484 163.001 217.147 158.948 217.147 154.167C217.147 149.385 215.484 145.332 212.159 142.007C208.834 138.682 204.781 137.02 200 137.02C195.219 137.02 191.166 138.682 187.841 142.007C184.516 145.332 182.853 149.385 182.853 154.167C182.853 158.948 184.516 163.001 187.841 166.326C191.166 169.651 195.219 171.313 200 171.313ZM200 165.065C196.923 165.065 194.338 164.017 192.244 161.923C190.149 159.829 189.102 157.244 189.102 154.167C189.102 151.09 190.149 148.504 192.244 146.41C194.338 144.316 196.923 143.269 200 143.269C203.077 143.269 205.663 144.316 207.756 146.41C209.851 148.504 210.898 151.09 210.898 154.167C210.898 157.244 209.851 159.829 207.756 161.923C205.663 164.017 203.077 165.065 200 165.065ZM167.949 185.417C165.844 185.417 164.063 184.687 162.604 183.229C161.146 181.771 160.417 179.989 160.417 177.884V130.449C160.417 128.344 161.146 126.562 162.604 125.104C164.063 123.646 165.844 122.917 167.949 122.917H180.673L188.381 114.583H211.619L219.327 122.917H232.051C234.156 122.917 235.938 123.646 237.396 125.104C238.854 126.562 239.583 128.344 239.583 130.449V177.884C239.583 179.989 238.854 181.771 237.396 183.229C235.938 184.687 234.156 185.417 232.051 185.417H167.949Z" fill="#8B8B8B"/>
</g>
<path d="M149.75 308.547H151.266V315.164C151.266 316.315 151.135 317.229 150.875 317.906C150.615 318.583 150.143 319.135 149.461 319.562C148.784 319.984 147.893 320.195 146.789 320.195C145.716 320.195 144.839 320.01 144.156 319.641C143.474 319.271 142.987 318.737 142.695 318.039C142.404 317.336 142.258 316.378 142.258 315.164V308.547H143.773V315.156C143.773 316.151 143.865 316.885 144.047 317.359C144.234 317.828 144.552 318.19 145 318.445C145.453 318.701 146.005 318.828 146.656 318.828C147.771 318.828 148.565 318.576 149.039 318.07C149.513 317.565 149.75 316.594 149.75 315.156V308.547ZM154.257 323.18V311.703H155.538V312.781C155.841 312.359 156.182 312.044 156.562 311.836C156.942 311.622 157.403 311.516 157.945 311.516C158.653 311.516 159.278 311.698 159.82 312.062C160.361 312.427 160.77 312.943 161.046 313.609C161.322 314.271 161.46 314.997 161.46 315.789C161.46 316.638 161.307 317.404 160.999 318.086C160.697 318.763 160.255 319.284 159.671 319.648C159.093 320.008 158.484 320.188 157.843 320.188C157.374 320.188 156.953 320.089 156.578 319.891C156.208 319.693 155.903 319.443 155.663 319.141V323.18H154.257ZM155.531 315.898C155.531 316.966 155.747 317.755 156.179 318.266C156.611 318.776 157.135 319.031 157.749 319.031C158.374 319.031 158.908 318.768 159.351 318.242C159.799 317.711 160.023 316.891 160.023 315.781C160.023 314.724 159.804 313.932 159.367 313.406C158.934 312.88 158.416 312.617 157.812 312.617C157.213 312.617 156.682 312.898 156.218 313.461C155.76 314.018 155.531 314.831 155.531 315.898ZM163.772 320V308.547H165.178V320H163.772ZM167.483 315.852C167.483 314.315 167.91 313.177 168.764 312.438C169.477 311.823 170.347 311.516 171.373 311.516C172.514 311.516 173.446 311.891 174.17 312.641C174.894 313.385 175.256 314.417 175.256 315.734C175.256 316.802 175.094 317.643 174.772 318.258C174.454 318.867 173.988 319.341 173.373 319.68C172.764 320.018 172.097 320.188 171.373 320.188C170.212 320.188 169.272 319.815 168.553 319.07C167.839 318.326 167.483 317.253 167.483 315.852ZM168.928 315.852C168.928 316.914 169.16 317.711 169.623 318.242C170.087 318.768 170.67 319.031 171.373 319.031C172.071 319.031 172.652 318.766 173.115 318.234C173.579 317.703 173.811 316.893 173.811 315.805C173.811 314.779 173.576 314.003 173.108 313.477C172.644 312.945 172.066 312.68 171.373 312.68C170.67 312.68 170.087 312.943 169.623 313.469C169.16 313.995 168.928 314.789 168.928 315.852ZM182.966 318.977C182.445 319.419 181.943 319.732 181.458 319.914C180.979 320.096 180.464 320.188 179.912 320.188C179 320.188 178.3 319.966 177.81 319.523C177.32 319.076 177.076 318.505 177.076 317.812C177.076 317.406 177.167 317.036 177.349 316.703C177.537 316.365 177.779 316.094 178.076 315.891C178.378 315.688 178.716 315.534 179.091 315.43C179.367 315.357 179.784 315.286 180.341 315.219C181.477 315.083 182.313 314.922 182.849 314.734C182.854 314.542 182.857 314.419 182.857 314.367C182.857 313.794 182.724 313.391 182.458 313.156C182.099 312.839 181.565 312.68 180.857 312.68C180.195 312.68 179.706 312.797 179.388 313.031C179.076 313.26 178.844 313.669 178.693 314.258L177.318 314.07C177.443 313.482 177.649 313.008 177.935 312.648C178.221 312.284 178.636 312.005 179.177 311.812C179.719 311.615 180.346 311.516 181.06 311.516C181.768 311.516 182.344 311.599 182.787 311.766C183.229 311.932 183.555 312.143 183.763 312.398C183.971 312.648 184.117 312.966 184.201 313.352C184.248 313.591 184.271 314.023 184.271 314.648V316.523C184.271 317.831 184.3 318.659 184.357 319.008C184.419 319.352 184.539 319.682 184.716 320H183.248C183.102 319.708 183.008 319.367 182.966 318.977ZM182.849 315.836C182.339 316.044 181.573 316.221 180.552 316.367C179.974 316.451 179.565 316.544 179.326 316.648C179.086 316.753 178.901 316.906 178.771 317.109C178.641 317.307 178.576 317.529 178.576 317.773C178.576 318.148 178.716 318.461 178.998 318.711C179.284 318.961 179.701 319.086 180.248 319.086C180.789 319.086 181.271 318.969 181.693 318.734C182.115 318.495 182.425 318.169 182.623 317.758C182.774 317.44 182.849 316.971 182.849 316.352V315.836ZM192.481 320V318.953C191.955 319.776 191.182 320.188 190.161 320.188C189.499 320.188 188.89 320.005 188.333 319.641C187.781 319.276 187.351 318.768 187.044 318.117C186.742 317.461 186.591 316.708 186.591 315.859C186.591 315.031 186.729 314.281 187.005 313.609C187.281 312.932 187.695 312.414 188.247 312.055C188.799 311.695 189.416 311.516 190.098 311.516C190.598 311.516 191.044 311.622 191.434 311.836C191.825 312.044 192.143 312.318 192.388 312.656V308.547H193.786V320H192.481ZM188.036 315.859C188.036 316.922 188.26 317.716 188.708 318.242C189.156 318.768 189.684 319.031 190.294 319.031C190.908 319.031 191.429 318.781 191.856 318.281C192.289 317.776 192.505 317.008 192.505 315.977C192.505 314.841 192.286 314.008 191.848 313.477C191.411 312.945 190.872 312.68 190.231 312.68C189.606 312.68 189.083 312.935 188.661 313.445C188.244 313.956 188.036 314.76 188.036 315.859ZM201.746 310.164V308.547H203.152V310.164H201.746ZM201.746 320V311.703H203.152V320H201.746ZM205.94 320V311.703H207.198V312.867C207.459 312.461 207.805 312.135 208.237 311.891C208.669 311.641 209.162 311.516 209.714 311.516C210.328 311.516 210.831 311.643 211.222 311.898C211.617 312.154 211.896 312.51 212.057 312.969C212.714 312 213.568 311.516 214.62 311.516C215.443 311.516 216.076 311.745 216.518 312.203C216.961 312.656 217.182 313.357 217.182 314.305V320H215.784V314.773C215.784 314.211 215.737 313.807 215.643 313.562C215.555 313.312 215.391 313.112 215.151 312.961C214.912 312.81 214.63 312.734 214.307 312.734C213.724 312.734 213.24 312.93 212.854 313.32C212.469 313.706 212.276 314.326 212.276 315.18V320H210.87V314.609C210.87 313.984 210.755 313.516 210.526 313.203C210.297 312.891 209.922 312.734 209.401 312.734C209.005 312.734 208.638 312.839 208.3 313.047C207.966 313.255 207.724 313.56 207.573 313.961C207.422 314.362 207.347 314.94 207.347 315.695V320H205.94ZM225.323 318.977C224.802 319.419 224.299 319.732 223.815 319.914C223.336 320.096 222.82 320.188 222.268 320.188C221.356 320.188 220.656 319.966 220.166 319.523C219.677 319.076 219.432 318.505 219.432 317.812C219.432 317.406 219.523 317.036 219.705 316.703C219.893 316.365 220.135 316.094 220.432 315.891C220.734 315.688 221.073 315.534 221.448 315.43C221.724 315.357 222.14 315.286 222.698 315.219C223.833 315.083 224.669 314.922 225.205 314.734C225.211 314.542 225.213 314.419 225.213 314.367C225.213 313.794 225.08 313.391 224.815 313.156C224.455 312.839 223.921 312.68 223.213 312.68C222.552 312.68 222.062 312.797 221.744 313.031C221.432 313.26 221.2 313.669 221.049 314.258L219.674 314.07C219.799 313.482 220.005 313.008 220.291 312.648C220.578 312.284 220.992 312.005 221.533 311.812C222.075 311.615 222.703 311.516 223.416 311.516C224.125 311.516 224.7 311.599 225.143 311.766C225.586 311.932 225.911 312.143 226.119 312.398C226.328 312.648 226.474 312.966 226.557 313.352C226.604 313.591 226.627 314.023 226.627 314.648V316.523C226.627 317.831 226.656 318.659 226.713 319.008C226.776 319.352 226.895 319.682 227.073 320H225.604C225.458 319.708 225.364 319.367 225.323 318.977ZM225.205 315.836C224.695 316.044 223.929 316.221 222.908 316.367C222.33 316.451 221.921 316.544 221.682 316.648C221.442 316.753 221.257 316.906 221.127 317.109C220.997 317.307 220.932 317.529 220.932 317.773C220.932 318.148 221.073 318.461 221.354 318.711C221.64 318.961 222.057 319.086 222.604 319.086C223.145 319.086 223.627 318.969 224.049 318.734C224.471 318.495 224.781 318.169 224.979 317.758C225.13 317.44 225.205 316.971 225.205 316.352V315.836ZM229.197 320.688L230.564 320.891C230.621 321.312 230.78 321.62 231.041 321.812C231.39 322.073 231.866 322.203 232.47 322.203C233.121 322.203 233.624 322.073 233.978 321.812C234.332 321.552 234.572 321.188 234.697 320.719C234.77 320.432 234.804 319.831 234.798 318.914C234.184 319.638 233.418 320 232.502 320C231.361 320 230.478 319.589 229.853 318.766C229.228 317.943 228.916 316.956 228.916 315.805C228.916 315.013 229.059 314.284 229.345 313.617C229.632 312.945 230.046 312.427 230.588 312.062C231.134 311.698 231.775 311.516 232.509 311.516C233.489 311.516 234.296 311.911 234.931 312.703V311.703H236.228V318.875C236.228 320.167 236.095 321.081 235.83 321.617C235.569 322.159 235.153 322.586 234.58 322.898C234.012 323.211 233.311 323.367 232.478 323.367C231.489 323.367 230.689 323.143 230.08 322.695C229.47 322.253 229.176 321.583 229.197 320.688ZM230.361 315.703C230.361 316.792 230.577 317.586 231.009 318.086C231.442 318.586 231.983 318.836 232.634 318.836C233.28 318.836 233.822 318.589 234.259 318.094C234.697 317.594 234.916 316.812 234.916 315.75C234.916 314.734 234.689 313.969 234.236 313.453C233.788 312.938 233.246 312.68 232.611 312.68C231.986 312.68 231.455 312.935 231.017 313.445C230.58 313.951 230.361 314.703 230.361 315.703ZM244.681 317.328L246.134 317.508C245.905 318.357 245.48 319.016 244.86 319.484C244.241 319.953 243.449 320.188 242.485 320.188C241.272 320.188 240.308 319.815 239.595 319.07C238.886 318.32 238.532 317.271 238.532 315.922C238.532 314.526 238.892 313.443 239.61 312.672C240.329 311.901 241.261 311.516 242.407 311.516C243.517 311.516 244.423 311.893 245.126 312.648C245.829 313.404 246.181 314.466 246.181 315.836C246.181 315.919 246.178 316.044 246.173 316.211H239.985C240.037 317.122 240.295 317.82 240.759 318.305C241.222 318.789 241.8 319.031 242.493 319.031C243.009 319.031 243.449 318.896 243.813 318.625C244.178 318.354 244.467 317.922 244.681 317.328ZM240.063 315.055H244.696C244.634 314.357 244.457 313.833 244.165 313.484C243.717 312.943 243.136 312.672 242.423 312.672C241.777 312.672 241.233 312.888 240.79 313.32C240.353 313.753 240.11 314.331 240.063 315.055ZM247.985 317.523L249.375 317.305C249.453 317.862 249.67 318.289 250.024 318.586C250.383 318.883 250.883 319.031 251.524 319.031C252.17 319.031 252.649 318.901 252.961 318.641C253.274 318.375 253.43 318.065 253.43 317.711C253.43 317.393 253.292 317.143 253.016 316.961C252.823 316.836 252.344 316.677 251.578 316.484C250.547 316.224 249.831 316 249.43 315.812C249.034 315.62 248.732 315.357 248.524 315.023C248.321 314.685 248.219 314.312 248.219 313.906C248.219 313.536 248.302 313.195 248.469 312.883C248.641 312.565 248.873 312.302 249.164 312.094C249.383 311.932 249.68 311.797 250.055 311.688C250.435 311.573 250.841 311.516 251.274 311.516C251.925 311.516 252.495 311.609 252.985 311.797C253.479 311.984 253.844 312.24 254.078 312.562C254.313 312.88 254.474 313.307 254.563 313.844L253.188 314.031C253.125 313.604 252.943 313.271 252.641 313.031C252.344 312.792 251.922 312.672 251.375 312.672C250.729 312.672 250.269 312.779 249.993 312.992C249.716 313.206 249.578 313.456 249.578 313.742C249.578 313.924 249.636 314.089 249.75 314.234C249.865 314.385 250.045 314.51 250.289 314.609C250.43 314.661 250.844 314.781 251.532 314.969C252.526 315.234 253.219 315.453 253.61 315.625C254.006 315.792 254.315 316.036 254.539 316.359C254.763 316.682 254.875 317.083 254.875 317.562C254.875 318.031 254.737 318.474 254.461 318.891C254.19 319.302 253.797 319.622 253.282 319.852C252.766 320.076 252.183 320.188 251.532 320.188C250.453 320.188 249.631 319.964 249.063 319.516C248.5 319.068 248.141 318.404 247.985 317.523Z" fill="#8B8B8B"/>
</svg>
